<svg t="1660982580442" class="icon" viewBox="0 0 1024 1024" version="1.1" xmlns="http://www.w3.org/2000/svg" p-id="14599" width="200" height="200"><path d="M859.306667 170.666667h-416.853334a128 128 0 0 0-85.333333 33.28l-4.266667 4.693333-256 319.146667a42.666667 42.666667 0 0 0 4.693334 58.453333l256 233.813333a128 128 0 0 0 85.333333 33.28h416.853333A78.506667 78.506667 0 0 0 938.666667 775.68V248.32A78.506667 78.506667 0 0 0 859.306667 170.666667zM853.333333 768h-410.88a42.666667 42.666667 0 0 1-28.586666-11.093333l-227.413334-206.933334 229.546667-284.586666a42.666667 42.666667 0 0 1 26.453333-9.386667H853.333333z" p-id="14600"></path><path d="M481.706667 627.626667a42.666667 42.666667 0 0 0 60.586666 0l55.04-55.466667 55.04 55.466667a42.666667 42.666667 0 0 0 60.586667 0 42.666667 42.666667 0 0 0 0-60.586667L657.493333 512l55.466667-55.04a42.666667 42.666667 0 0 0-60.586667-60.586667L597.333333 451.84l-55.04-55.466667a42.666667 42.666667 0 0 0-60.586666 60.586667l55.466666 55.04-55.466666 55.04a42.666667 42.666667 0 0 0 0 60.586667z" p-id="14601"></path></svg>