<svg t="1661071619316" class="icon" viewBox="0 0 1024 1024" version="1.1" xmlns="http://www.w3.org/2000/svg" p-id="6012" width="20" height="20">
    <path d="M512 832H224c-17.706667 0-32-14.293333-32-32V160c0-17.706667 14.293333-32 32-32h576c17.706667 0 32 14.293333 32 32v320c0 17.706667 14.293333 32 32 32s32-14.293333 32-32V160c0-52.906667-43.093333-96-96-96H224c-52.906667 0-96 43.093333-96 96v640c0 52.906667 43.093333 96 96 96h288c17.706667 0 32-14.293333 32-32s-14.293333-32-32-32z" p-id="6013" fill="#707070"></path><path d="M672 256H352c-17.706667 0-32 14.293333-32 32s14.293333 32 32 32h320c17.706667 0 32-14.293333 32-32s-14.293333-32-32-32zM672 448H352c-17.706667 0-32 14.293333-32 32s14.293333 32 32 32h320c17.706667 0 32-14.293333 32-32s-14.293333-32-32-32zM948.053333 871.04l-71.893333-57.813333c12.906667-23.36 19.84-49.813333 19.84-77.226667 0-42.773333-16.64-82.88-46.826667-113.173333-60.48-60.48-165.866667-60.48-226.24 0-30.186667 30.186667-46.826667 70.4-46.826666 113.173333s16.64 82.986667 46.826666 113.173333c30.186667 30.186667 70.4 46.826667 113.173334 46.826667 36.266667 0 70.613333-11.946667 98.666666-34.026667l73.28 58.986667c5.866667 4.8 13.013333 7.04 20.053334 7.04 9.386667 0 18.666667-4.053333 24.96-11.946667 10.986667-13.76 8.746667-33.92-5.013334-45.013333z m-144.213333-67.2c-36.266667 36.266667-99.52 36.266667-135.786667 0-18.133333-18.133333-28.16-42.24-28.16-67.84s10.026667-49.706667 28.16-67.84S710.293333 640 736 640s49.706667 10.026667 67.84 28.16S832 710.293333 832 736s-10.026667 49.706667-28.16 67.84z" p-id="6014" fill="#707070"></path>
</svg>