<svg t="1661956369504" class="icon" viewBox="0 0 1024 1024" version="1.1" xmlns="http://www.w3.org/2000/svg" p-id="6927" width="18" height="18"><path d="M954.202 582.394a6.184 6.184 0 0 0-0.1-0.265l-0.086-0.223c-0.057-0.135-0.104-0.272-0.152-0.411a9.972 9.972 0 0 0-0.288-0.753 7.689 7.689 0 0 0-0.521-0.969c-0.073-0.12-0.148-0.239-0.223-0.387-0.063-0.121-0.115-0.247-0.167-0.371a8.094 8.094 0 0 0-0.465-0.953L838.164 388.1c-4.123-6.869-11.664-11.136-19.68-11.136a22.901 22.901 0 0 0-11.446 3.078l-152.98 88.326c-5.313 3.068-9.111 8.024-10.695 13.955-1.557 5.843-0.706 12.194 2.33 17.422l100.09 172.238h-50.306v-24.362c0-9.471-5.687-17.837-14.484-21.315a22.79 22.79 0 0 0-8.436-1.613 23.033 23.033 0 0 0-16.72 7.231L528.436 767.539c-8.269 8.804-8.269 22.599 0 31.404l127.4 135.619a23.033 23.033 0 0 0 16.715 7.226 22.72 22.72 0 0 0 8.438-1.613c8.8-3.484 14.486-11.851 14.486-21.316v-24.362h92.658c7.945 0 15.449-4.213 19.583-10.993l107.611-176.556 36.54-60.138c0.114-0.182 0.203-0.371 0.283-0.571l0.185-0.322c0.289-0.502 0.589-1.019 0.862-1.626 0.119-0.268 0.22-0.54 0.318-0.814 0.059-0.163 0.117-0.328 0.221-0.573l0.05-0.124c0.038-0.093 0.075-0.188 0.11-0.281 4.107-9.755 6.188-19.988 6.188-30.415 0.002-10.166-1.978-20.155-5.882-29.69z m-39.976 29.693c0 4.261-0.832 8.44-2.472 12.424l-28.847 47.481-84.081-0.016L696.901 496.59l113.544-65.556 101.473 169.034a32.55 32.55 0 0 1 2.308 12.019z m-59.257 105.762l-79.711 130.787H672.547c-9.319 0-17.689 5.772-21.187 14.174l-74.747-79.569 74.741-79.566c3.499 8.402 11.871 14.174 21.193 14.174h182.422zM704.157 388.547a23.07 23.07 0 0 0 5.244 0.61c10.021 0 19.043-6.708 21.941-16.312l53.745-178.141c2.732-9.063-0.295-18.717-7.715-24.595a23.05 23.05 0 0 0-14.246-4.958 22.919 22.919 0 0 0-11.457 3.074l-21.098 12.181-46.331-80.243c-3.972-6.877-11.37-11.268-19.311-11.46l-206.844-4.919-70.216-1.57-0.151-0.002c-0.316 0-0.622 0.029-0.928 0.063-0.129 0.014-0.258 0.03-0.459 0.036l-0.28-0.008a7.296 7.296 0 0 0-1.011 0.016 9.718 9.718 0 0 0-0.727 0.109c-0.123 0.022-0.246 0.046-0.446 0.07l-0.291 0.042c-0.232 0.033-0.464 0.066-0.692 0.108-10.414 1.339-20.236 4.638-29.193 9.806-8.796 5.078-16.455 11.786-22.766 19.94-0.069 0.081-0.135 0.163-0.202 0.245l-0.136 0.17c-0.094 0.122-0.195 0.238-0.295 0.354-0.163 0.19-0.326 0.381-0.487 0.594a7.67 7.67 0 0 0-0.588 0.954c-0.065 0.12-0.129 0.241-0.198 0.349-0.074 0.116-0.157 0.223-0.239 0.332-0.179 0.239-0.401 0.535-0.606 0.901L220.683 310.036c-6.032 10.87-2.181 24.769 8.585 30.983l152.982 88.323a22.956 22.956 0 0 0 17.432 2.283c5.922-1.597 10.868-5.408 13.927-10.731l99.113-172.799 25.152 43.567-21.093 12.181c-8.199 4.732-12.602 13.841-11.218 23.206 1.384 9.364 8.231 16.812 17.445 18.976l181.149 42.522z m-217.965-186.37L385.263 378.125l-113.547-65.551 95.645-172.38a32.456 32.456 0 0 1 9.258-8.019 32.355 32.355 0 0 1 12.016-4.069l55.52 1.246 42.037 72.825z m102.862 86.408l-91.211-157.986 153.124 3.64 51.358 88.951a22.966 22.966 0 0 0 15.224 10.988c2.514 0.519 5.12 0.612 7.641 0.278l-31.528 104.513-106.285-24.943c5.525-7.229 6.337-17.366 1.677-25.441zM480.046 660.361l-199.203 0.561 25.152-43.567 21.094 12.18a22.971 22.971 0 0 0 11.352 3.071l0.202 0.002c12.643 0 22.929-10.286 22.929-22.929 0-2.937-0.546-5.792-1.622-8.488l-53.186-176.276c-2.899-9.6-11.926-16.306-21.952-16.306-1.756 0-3.519 0.204-5.242 0.607L98.421 451.74c-9.212 2.164-16.06 9.612-17.445 18.976-1.385 9.366 3.019 18.475 11.218 23.206l21.098 12.181-46.327 80.243c-3.972 6.882-4.073 15.484-0.266 22.452l98.882 181.076 0.003 1.637h0.892l33.129 60.466c0.193 0.361 0.406 0.644 0.577 0.872 0.067 0.09 0.136 0.178 0.195 0.27 0.07 0.111 0.129 0.227 0.19 0.341 0.139 0.263 0.312 0.589 0.555 0.924 0.181 0.25 0.376 0.485 0.571 0.717 0.109 0.13 0.218 0.258 0.377 0.463l0.075 0.095c0.063 0.081 0.127 0.163 0.194 0.242 6.401 8.434 14.218 15.35 23.234 20.557 8.713 5.03 18.277 8.296 28.428 9.708 0.068 0.012 0.145 0.025 0.256 0.041l0.134 0.022c0.2 0.027 0.397 0.064 0.593 0.101 0.329 0.06 0.659 0.12 0.989 0.157 0.84 0.098 1.716 0.147 2.608 0.147h0.004c0.135 0 0.277 0 0.39-0.003l221.53-3.774c12.429-0.21 22.541-10.495 22.541-22.926V683.278c0-6.047-2.455-11.966-6.741-16.243-4.336-4.304-10.087-6.674-16.259-6.674zM166.545 491.01a22.94 22.94 0 0 0-3.75-7.274l106.281-24.949 31.535 104.517a23.23 23.23 0 0 0-8.948 0.578 22.799 22.799 0 0 0-13.921 10.684L186.53 732.551l-73.408-134.426 51.354-88.951a23.008 23.008 0 0 0 2.069-18.164z m290.637 215.271v131.112l-197.113 3.361a32.54 32.54 0 0 1-11.573-4.008c-3.688-2.129-6.894-4.947-9.534-8.378l-26.679-48.699 42.049-72.813 202.85-0.575z" p-id="6928" fill="#707070"></path></svg>